<?xml version="1.0" encoding="UTF-8" standalone="no"?>
<svg
   xmlns:dc="http://purl.org/dc/elements/1.1/"
   xmlns:cc="http://creativecommons.org/ns#"
   xmlns:rdf="http://www.w3.org/1999/02/22-rdf-syntax-ns#"
   xmlns:svg="http://www.w3.org/2000/svg"
   xmlns="http://www.w3.org/2000/svg"
   xmlns:sodipodi="http://sodipodi.sourceforge.net/DTD/sodipodi-0.dtd"
   xmlns:inkscape="http://www.inkscape.org/namespaces/inkscape"
   width="416.27341"
   height="394.95782"
   overflow="hidden"
   version="1.1"
   id="svg13"
   sodipodi:docname="arrow.svg"
   style="overflow:hidden"
   inkscape:version="0.92.4 (5da689c313, 2019-01-14)">
  <metadata
     id="metadata17">
    <rdf:RDF>
      <cc:Work
         rdf:about="">
        <dc:format>image/svg+xml</dc:format>
        <dc:type
           rdf:resource="http://purl.org/dc/dcmitype/StillImage" />
      </cc:Work>
    </rdf:RDF>
  </metadata>
  <sodipodi:namedview
     pagecolor="#ffffff"
     bordercolor="#666666"
     borderopacity="1"
     objecttolerance="10"
     gridtolerance="10"
     guidetolerance="10"
     inkscape:pageopacity="0"
     inkscape:pageshadow="2"
     inkscape:window-width="4480"
     inkscape:window-height="2428"
     id="namedview15"
     showgrid="false"
     inkscape:zoom="3.7083822"
     inkscape:cx="209.57417"
     inkscape:cy="188.01401"
     inkscape:window-x="-12"
     inkscape:window-y="975"
     inkscape:window-maximized="1"
     inkscape:current-layer="svg13" />
  <defs
     id="defs5">
    <clipPath
       id="clip0">
      <path
         d="M 0,0 H 1280 V 720 H 0 Z"
         id="path2"
         inkscape:connector-curvature="0"
         style="clip-rule:evenodd;fill-rule:evenodd" />
    </clipPath>
  </defs>
  <g
     clip-path="url(#clip0)"
     id="g11"
     transform="matrix(0.99110633,0,0,0.94721345,-218.71287,-150.23298)">
    <rect
       x="208.96967"
       y="149.9306"
       width="439.87823"
       height="454.65521"
       id="rect7"
       style="opacity:0;fill:#ffffff" />
    <path
       d="M 0.0519305,-1.99933 9.74221,-1.74763 16.1525,-1.16107 15.788,2.82229 9.44275,2.24168 9.57307,2.24933 -0.0519305,1.99933 Z M 28.148,0.343967 l 0.8703,0.120234 9.6087,1.896459 5.3792,1.36272 -0.9823,3.87751 -5.3276,-1.34964 0.1039,0.0234 -9.5,-1.875 0.1136,0.01903 -0.8132,-0.11235 z m 27.4832,6.691173 1.8705,0.5649 9.3377,3.34386 3.9959,1.626 -1.5076,3.705 -3.9565,-1.6099 0.0795,0.0304 -9.25,-3.3125 0.0961,0.0317 -1.822,-0.5503 z m 26.2769,10.42436 3.0438,1.4362 8.8229,4.6005 2.4677,1.423 -1.9982,3.4651 -2.4309,-1.4017 0.0744,0.0408 -8.75,-4.5625 0.0713,0.0354 -3.0079,-1.4192 z m 24.6949,13.6756 4.272,2.7098 8.953,6.5053 -2.351,3.236 -8.903,-6.4682 0.105,0.0709 -4.219,-2.676 z m 22.897,16.583 12.116,10.45 -2.613,3.029 -12.116,-10.45 z m 20.663,19.1104 5.826,5.9583 4.988,6.0413 -3.084,2.5469 -4.935,-5.9766 0.112,0.1248 -5.767,-5.8983 z m 18.524,21.3664 5.526,7.6745 3.622,5.5616 -3.352,2.183 -3.597,-5.5227 0.053,0.0773 -5.498,-7.6365 z m 15.432,23.5511 0.312,0.524 4.486,8.466 2.529,5.458 -3.63,1.681 -2.506,-5.409 0.048,0.095 -4.438,-8.375 0.049,0.087 -0.286,-0.481 z m 12.028,25.591 0.289,0.712 3.036,8.853 1.662,5.859 -3.848,1.092 -1.648,-5.807 0.033,0.103 -3,-8.75 0.038,0.103 -0.268,-0.661 z m 7.806,27.201 0.074,0.334 1.458,9.06 0.651,6.696 -3.982,0.387 -0.645,-6.634 0.016,0.124 -1.437,-8.937 0.023,0.119 -0.062,-0.276 z m 2.755,28.197 0.291,8.383 -0.008,-0.124 0.736,7.576 -3.981,0.387 -0.743,-7.638 -0.293,-8.445 z m 2.887,27.434 1.669,7.457 -0.027,-0.109 2.281,8.041 -3.848,1.091 -2.297,-8.095 -1.681,-7.512 z m 7.803,26.509 2.768,6.82 -0.039,-0.089 3.632,7.84 -3.63,1.681 -3.652,-7.883 -2.785,-6.865 z m 11.924,24.974 3.962,6.706 -0.049,-0.08 4.505,6.865 -3.344,2.195 -4.531,-6.905 -3.987,-6.746 z m 15.271,23.064 10.213,12.317 -3.079,2.553 -10.213,-12.316 z m 18.339,20.914 7.123,7.284 -0.121,-0.113 4.394,3.805 -2.619,3.023 -4.456,-3.859 -7.181,-7.344 z m 20.466,18.832 1.474,1.276 -0.133,-0.105 11.362,8.267 -2.354,3.234 -11.43,-8.317 -1.537,-1.331 z m 22.516,16.122 3.1,1.981 -0.077,-0.048 8.562,4.938 -0.084,-0.046 2.167,1.114 -1.83,3.558 -2.209,-1.137 -8.644,-4.984 -3.139,-2.006 z m 24.348,13.243 4.774,2.237 -0.095,-0.042 9.063,3.688 -0.076,-0.029 0.888,0.32 -1.357,3.763 -0.925,-0.334 -9.148,-3.722 -4.821,-2.259 z m 25.795,10.052 6.271,1.894 -0.087,-0.024 9.16,2.32 -0.982,3.878 -9.204,-2.332 -6.314,-1.907 z m 26.917,6.364 7.425,1.026 -0.092,-0.011 8.47,0.775 -0.365,3.984 -8.515,-0.78 -7.471,-1.032 z m 11.618,-4.981 14.73,9.113 -15.183,8.336 c -0.969,0.532 -2.184,0.178 -2.716,-0.79 -0.532,-0.969 -0.178,-2.184 0.791,-2.716 l 12.177,-6.686 -0.089,3.454 -11.815,-7.309 c -0.939,-0.581 -1.229,-1.814 -0.648,-2.753 0.581,-0.94 1.814,-1.23 2.753,-0.649 z"
       transform="matrix(1,0,0,-1,226,568.364)"
       id="path9"
       inkscape:connector-curvature="0"
       style="fill:#272c51;fill-opacity:0.54901997"
       mask="none" />
  </g>
</svg>
